PathFileType	3	(X/Y/Z)	D:\Vicon Database\Healthy Subjects\S0040\Jan. 30, 2020\Force Plate Walk 9.trc
DataRate	CameraRate	NumFrames	NumMarkers	Units	OrigDataRate	OrigDataStartFrame	OrigNumFrames
100.0	100.0	6	53	mm	100.0	442	299	
Frame#	Time	right_foot_cluster2			right_foot_cluster3			sternum_cluster1			sternum_cluster2			sternum_cluster3			left_asis			right_asis			left_psis			right_psis			sacrum_cluster1			sacrum_cluster2			sacrum_cluster3			left_lat_femoral_epicondyle			left_anterior_thigh15			left_anterior_thigh25			left_anterior_thigh50			left_lateral_thigh25			left_lateral_thigh50			left_thigh_cluster1			left_thigh_cluster2			left_thigh_cluster3			left_fibular_head			left_tibial_tuberosity			left_anterior_shank30			left_lateral_malleolus			left_shank_cluster1			left_shank_cluster2			left_shank_cluster3			left_heel			left_metatarsal2			left_foot_cluster1			left_foot_cluster2			left_foot_cluster3			right_lat_femoral_epicondyle			right_anterior_thigh15			right_anterior_thigh25			right_anterior_thigh50			right_lateral_thigh25			right_lateral_thigh50			right_thigh_cluster1			right_thigh_cluster2			right_thigh_cluster3			right_fibular_head			right_tibial_tuberosity			right_lateral_distal_shank			right_anterior_shank30			right_lateral_malleolus			right_shank_cluster1			right_shank_cluster2			right_shank_cluster3			right_heel			right_metatarsal2			right_foot_cluster1			
		X1	Y1	Z1	X2	Y2	Z2	X3	Y3	Z3	X4	Y4	Z4	X5	Y5	Z5	X6	Y6	Z6	X7	Y7	Z7	X8	Y8	Z8	X9	Y9	Z9	X10	Y10	Z10	X11	Y11	Z11	X12	Y12	Z12	X13	Y13	Z13	X14	Y14	Z14	X15	Y15	Z15	X16	Y16	Z16	X17	Y17	Z17	X18	Y18	Z18	X19	Y19	Z19	X20	Y20	Z20	X21	Y21	Z21	X22	Y22	Z22	X23	Y23	Z23	X24	Y24	Z24	X25	Y25	Z25	X26	Y26	Z26	X27	Y27	Z27	X28	Y28	Z28	X29	Y29	Z29	X30	Y30	Z30	X31	Y31	Z31	X32	Y32	Z32	X33	Y33	Z33	X34	Y34	Z34	X35	Y35	Z35	X36	Y36	Z36	X37	Y37	Z37	X38	Y38	Z38	X39	Y39	Z39	X40	Y40	Z40	X41	Y41	Z41	X42	Y42	Z42	X43	Y43	Z43	X44	Y44	Z44	X45	Y45	Z45	X46	Y46	Z46	X47	Y47	Z47	X48	Y48	Z48	X49	Y49	Z49	X50	Y50	Z50	X51	Y51	Z51	X52	Y52	Z52	X53	Y53	Z53	
442	4.41	735.01099	130.70961	-218.4749	734.45258	132.24768	-255.92992	1031.5513	1424.4073	-156.42963	1017.4139	1397.4463	-149.02357	1021.7181	1400.1896	-186.75232	1036.0073	1040.3837	-39.770794	1040.235	1056.1648	-290.23105	1203.3486	1061.5361	-91.564941	1208.5526	1061.1434	-209.52185	1216.1353	1117.6342	-156.3009	1223.0846	1092.095	-167.36972	1222.3744	1086.4735	-128.93105	1235.458	541.83362	-28.925707	1113.4874	584.44513	-71.389023	1068.5476	662.78961	-52.002785	1031.3313	800.20972	-30.771759	1188.6499	685.78796	-5.4055238	1138.353	822.74536	23.221527	1156.6794	780.70129	27.637983	1166.6359	753.30225	23.762022	1128.9187	752.78082	30.224384	1267.0068	467.58185	-22.054747	1223.8107	430.09158	-76.843254	1371.8914	227.61185	-90.905312	1475.9126	153.14722	-65.535271	1249.0599	383.66296	-104.27465	1260.4059	358.29404	-95.57917	1271.7103	365.27158	-132.10265	1560.0356	153.7993	-103.22134	1364.5564	56.596981	-102.76205	1394.267	126.22008	-93.113358	1382.2595	99.120293	-85.144371	1374.031	104.92237	-121.71186	926.75763	534.29492	-297.97684	879.97864	646.71655	-242.97557	895.29327	724.20691	-243.38788	944.03973	841.21802	-252.90295	983.69971	680.83307	-326.26138	1039.8744	817.71637	-356.06195	1026.405	765.27527	-361.3623	1006.2197	745.04767	-356.80075	1042.0151	729.87714	-350.7514	918.70844	467.39236	-300.01907	862.60321	473.59634	-253.79872	870.33502	202.54155	-283.87219	828.33722	227.33224	-238.16751	842.70605	99.477722	-269.39307	861.55414	407.40353	-198.70503	861.00842	378.72348	-191.42807	836.28442	381.98572	-218.96538	907.31561	54.24762	-232.32465	697.48444	107.03278	-226.72343	761.18054	138.79691	-228.75471
443	4.42	729.06714	124.57732	-217.78033	728.33978	126.07945	-255.26321	1016.658	1425.126	-157.36145	1002.4194	1398.2312	-149.85875	1006.4387	1400.9968	-187.55725	1020.0092	1040.7177	-40.567719	1022.6694	1056.4969	-290.82251	1187.1183	1061.421	-92.856079	1191.558	1061.3793	-210.93042	1199.0697	1117.4396	-157.78319	1206.1959	1092.4003	-168.76901	1205.9104	1086.7123	-130.25331	1212.9325	539.83685	-29.074224	1090.7166	583.03455	-71.268555	1047.514	662.6145	-51.816799	1013.3458	800.56396	-31.306067	1168.9633	684.21985	-6.475594	1120.7642	821.79279	21.989336	1138.6615	779.79169	26.019215	1148.2059	752.12213	22.403675	1110.5016	752.11285	29.323479	1245.9363	466.53088	-21.695694	1204.2791	426.90686	-76.50914	1359.2589	230.30173	-90.38755	1465.5883	159.58594	-65.061798	1230.4363	381.76889	-103.59183	1242.7448	356.85513	-94.863792	1253.5222	364.14139	-131.4388	1548.8313	165.85652	-103.5707	1361.3109	55.492596	-102.7403	1385.0315	126.95728	-92.769325	1375.3181	98.596123	-84.695114	1366.6794	103.88182	-121.44659	913.96942	533.25861	-298.7196	865.92383	644.75195	-242.71681	880.28204	722.86182	-243.39835	927.08704	840.79797	-253.52377	969.15643	680.25085	-326.50394	1023.4843	817.67902	-356.32388	1010.7757	765.43579	-361.57974	990.65485	745.1394	-357.17343	1026.6774	730.27948	-351.07199	906.10303	466.30566	-300.39853	849.80646	471.72919	-254.42546	861.60608	200.85387	-283.89792	819.8739	224.58295	-237.56659	837.76538	97.628754	-269.4053	849.73279	405.54739	-198.93498	849.76691	376.93341	-191.79665	824.99677	379.70227	-219.19371	904.44257	55.430935	-232.20792	692.45416	99.283432	-226.05356	754.99414	133.53201	-228.06361
444	4.43	724.20917	118.96715	-216.92802	723.2038	120.62855	-254.32809	1001.7792	1425.9152	-158.25282	987.31763	1399.1537	-150.57779	991.16638	1401.8794	-188.3515	1004.1161	1041.2356	-41.319588	1005.61	1057.1908	-291.41782	1170.9873	1061.2887	-94.274376	1174.5806	1061.2745	-212.48714	1182.6536	1117.9631	-159.13017	1189.2697	1092.4984	-170.31377	1189.496	1086.8473	-131.76965	1189.2037	537.57794	-28.658417	1066.5707	581.34283	-70.501076	1025.9027	662.46063	-51.554375	994.66071	801.29956	-31.713646	1148.1506	682.21155	-7.4330683	1102.5404	820.82129	20.829233	1119.921	778.5351	24.251177	1129.0375	750.8963	21.307224	1091.7076	751.46381	27.956758	1223.6621	465.23065	-20.708672	1182.9656	423.76178	-75.23793	1345.035	233.24152	-89.580162	1453.6143	166.47816	-64.646683	1210.9629	379.39792	-102.19821	1223.9476	355.09665	-93.593658	1233.8718	362.72275	-130.20244	1536.4463	180.91345	-104.04588	1357.6633	54.590107	-102.68763	1374.7672	127.20086	-92.266296	1367.4954	98.064026	-84.25666	1358.5659	102.51749	-120.91501	901.09192	532.28076	-299.22427	852.1098	642.42145	-242.66997	865.42877	721.68134	-243.43944	910.21777	840.29608	-254.55963	954.46368	679.76514	-327.62643	1007.0905	818.06195	-356.79724	995.21033	765.78125	-362.23645	975.52924	745.10522	-357.72565	1011.5306	730.82056	-351.90439	892.9502	465.62311	-301.21103	838.04736	469.83896	-254.75949	854.13928	199.04485	-283.68826	812.151	221.98526	-237.14796	833.67712	96.236778	-269.26007	838.57355	403.59274	-198.83031	839.18414	374.92575	-191.41199	814.3717	377.17752	-219.01433	902.22906	56.89558	-232.0361	688.35754	92.218307	-225.26151	749.54156	128.98549	-227.11
445	4.44	720.5744	114.49119	-215.56407	719.53003	116.44614	-253.01007	986.66071	1426.9908	-159.05522	972.28979	1400.1953	-151.26245	975.83746	1402.8789	-189.0732	988.25604	1041.8877	-42.0327	988.6004	1058.2301	-291.92426	1155.0719	1061.2167	-95.56031	1158.618	1062.2263	-213.7244	1167.6044	1118.3879	-160.09021	1172.5759	1092.7477	-172.00998	1173.4713	1086.8848	-133.0955	1164.5659	535.17285	-27.453663	1041.4044	579.68256	-68.584229	1003.3592	662.3092	-50.653717	976.3009	802.03503	-32.398098	1126.6376	680.07233	-7.806222	1083.9452	819.59296	19.682381	1100.3549	777.48883	22.956141	1109.2483	749.52838	20.532145	1071.9135	750.84875	27.34885	1200.2413	463.8924	-19.08853	1159.9364	420.88449	-72.693817	1329.0845	236.2123	-88.274475	1439.8425	173.45229	-64.173935	1189.2996	377.26395	-99.915939	1203.2053	353.66953	-91.332397	1211.4407	360.93234	-128.05357	1519.8573	194.78683	-104.83219	1353.4408	54.305405	-102.60093	1363.7959	126.80191	-91.670898	1359.3796	97.082542	-83.714676	1349.8019	101.02976	-120.31332	888.12982	531.83881	-299.56195	838.37152	641.49554	-242.50543	850.65204	720.73285	-243.79318	893.5484	840.15131	-255.69775	941.03815	679.87329	-327.32498	990.65533	818.95575	-357.6908	979.94244	766.21783	-362.70865	960.08179	745.40753	-358.51346	996.3183	731.6073	-352.77902	880.18225	465.02087	-301.7179	825.88959	468.44699	-254.27162	846.90112	197.52119	-283.27087	805.2832	219.64595	-236.15776	830.59241	95.323814	-268.60397	828.3233	401.83099	-198.4015	829.87	373.08569	-191.16306	804.69019	374.68726	-218.41472	900.78607	57.598198	-231.94867	685.45032	86.517174	-224.0311	745.12689	125.66553	-225.49965
446	4.45	717.94324	111.02461	-214.18217	717.00598	113.39124	-251.86214	971.63367	1427.9882	-159.82785	957.16315	1401.2944	-151.96431	960.47095	1403.9651	-189.78873	972.74915	1042.5043	-43.010475	971.58472	1059.472	-292.41052	1139.2502	1060.7568	-96.821281	1142.1034	1062.746	-215.01405	1151.1644	1118.4517	-160.99802	1156.1971	1092.969	-173.5573	1157.8809	1087.0638	-134.017	1138.9668	532.66547	-25.70252	1015.7648	578.11328	-65.348167	980.30798	662.16248	-48.993771	957.42395	802.98694	-33.130299	1104.4652	677.75458	-7.5747504	1064.7622	818.36688	18.788298	1080.573	776.09857	22.265718	1088.6598	748.15204	20.047443	1051.186	750.07001	27.242632	1175.6713	462.70499	-16.989269	1135.7408	417.76514	-69.266998	1311.536	239.49907	-86.601105	1424.2437	180.96899	-63.527763	1166.2273	374.95401	-96.89888	1181.3715	352.04761	-88.407204	1189.3451	359.50052	-125.23526	1500.4548	209.74165	-105.48635	1348.3153	54.631527	-102.10206	1351.7124	127.48767	-90.353165	1350.1864	97.162895	-82.677307	1339.7489	100.76289	-119.19827	874.89539	531.98145	-300.05191	824.46289	641.40051	-241.96053	835.96533	720.51392	-244.37987	877.42242	840.48688	-256.91479	926.34601	680.5755	-328.16043	974.37341	820.16278	-358.81326	963.66663	767.27972	-364.2088	944.57001	746.17133	-359.40308	980.94299	732.68652	-353.89948	867.64001	464.65762	-301.9014	814.18719	467.33179	-253.50571	840.74182	196.21123	-282.41937	799.31116	217.78506	-234.51152	828.47186	94.753273	-268.05856	818.92322	400.42194	-197.84312	821.41034	371.66049	-190.60944	795.37329	372.98584	-217.33403	899.73773	58.118958	-231.79318	683.43304	82.315041	-223.08093	742.72382	122.8047	-224.40755
447	4.46	716.61249	108.89516	-213.78174	715.63922	111.49737	-251.17567	956.50922	1429.067	-160.54301	942.08533	1402.3932	-152.52733	945.12177	1404.9871	-190.39066	957.59198	1043.0553	-44.037163	955.02008	1061.0437	-292.94586	1123.9803	1061.1305	-97.663063	1126.2306	1063.5557	-215.99611	1135.0594	1118.5952	-161.95717	1140.3236	1093.519	-174.63669	1142.4286	1087.184	-134.96169	1113.0887	530.14172	-23.563606	989.18646	576.87317	-60.598736	957.2149	662.11499	-46.672859	937.71918	804.3219	-33.564011	1081.6674	675.29938	-6.5463614	1045.335	817.01062	18.099089	1060.0874	774.59528	21.77133	1067.734	746.41718	19.899261	1030.5281	749.37427	26.705475	1150.692	461.6752	-15.049121	1110.8523	414.81357	-65.243332	1292.6227	242.9762	-84.504326	1407.1908	189.21819	-62.492214	1141.9026	372.44556	-93.204369	1158.4185	350.30112	-84.541512	1165.2368	357.42282	-121.97256	1478.668	224.83836	-105.80782	1343.3993	55.574829	-101.28259	1339.0774	129.25839	-88.177322	1340.3185	98.947502	-80.596336	1329.6061	101.41137	-117.45726	861.32892	532.49554	-300.4639	810.80573	641.43903	-241.56938	821.70758	720.90125	-244.90509	861.86719	841.30414	-258.04654	911.28619	681.80768	-329.21466	958.48212	821.7865	-360.03552	948.11255	768.68695	-365.52353	929.0119	747.62805	-360.6879	965.35852	734.20166	-355.73654	855.56171	464.68359	-302.00381	803.09668	466.45502	-252.7543	835.19031	195.87904	-282.08313	794.20129	216.28952	-233.09383	826.9151	94.622414	-267.47958	810.2276	399.61566	-197.33955	813.84552	370.71948	-190.12535	787.1781	371.53223	-216.32651	899.37482	58.774002	-232.12331	682.31573	79.338287	-222.77455	741.11572	121.01468	-223.46916
